name analog
datacolumns 19
datarows 55
range 0.0 0.027
endheader
time	ground_force_vx	ground_force_vy	ground_force_vz	ground_force_px	ground_force_py	ground_force_pz	l_ground_force_vx	l_ground_force_vy	l_ground_force_vz	l_ground_force_px	l_ground_force_py	l_ground_force_pz	ground_torque_x	ground_torque_y	ground_torque_z	l_ground_torque_x	l_ground_torque_y	l_ground_torque_z
0.0	-0.0	-0.0	-0.0	4.4605255126953125	19.641260147094727	-225.27442932128903	0.9341556429862976	-15.20547866821289	-278.053955078125	-0.0	-0.0	-0.0	-0.0	-0.0	-0.0	95099.1328125	-22457.865234375	21.714038848876957
0.0005	-0.0	-0.0	-0.0	4.230478763580322	19.80572509765625	-224.69683837890625	0.7613016366958618	-14.889431953430176	-277.8516845703125	-0.0	-0.0	-0.0	-0.0	-0.0	-0.0	94848.109375	-22317.484375	62.28977966308594
0.001	-0.0	-0.0	-0.0	4.555026531219482	19.55252265930176	-224.0080108642578	1.097757339477539	-15.117677688598633	-276.2369079589844	-0.0	-0.0	-0.0	-0.0	-0.0	-0.0	94633.765625	-22221.865234375	81.00616455078125
0.0015	-0.0	-0.0	-0.0	3.858813524246216	18.955677032470703	-225.55044555664065	1.0126547813415527	-14.90802764892578	-276.178955078125	-0.0	-0.0	-0.0	-0.0	-0.0	-0.0	94446.2265625	-22165.896484375	103.27205657958984
0.002	-0.0	-0.0	-0.0	3.9996142387390137	19.500986099243164	-226.44715881347656	0.8687634468078613	-15.224860191345217	-276.58843994140625	-0.0	-0.0	-0.0	-0.0	-0.0	-0.0	94596.2890625	-21872.783203125	104.14547729492188
0.0025	-0.0	-0.0	-0.0	4.229961395263672	19.356359481811523	-227.1543884277344	0.7307182550430298	-14.993746757507324	-276.3013610839844	-0.0	-0.0	-0.0	-0.0	-0.0	-0.0	94137.0	-21958.876953125	103.13512420654295
0.003	-0.0	-0.0	-0.0	4.119069576263428	19.289045333862305	-226.03515625	0.8166103959083557	-15.06674098968506	-275.2748413085937	-0.0	-0.0	-0.0	-0.0	-0.0	-0.0	94163.796875	-21862.083984375	120.71253967285156
0.0035	-0.0	-0.0	-0.0	4.174510955810547	19.713483810424805	-225.69268798828125	0.3568356037139892	-15.121068954467772	-274.43316650390625	-0.0	-0.0	-0.0	-0.0	-0.0	-0.0	94049.484375	-21726.455078125	-3.586970090866089
0.004	-0.0	-0.0	-0.0	4.4263014793396	19.69538688659668	-226.93994140625	0.6390623450279236	-14.643392562866213	-273.52130126953125	-0.0	-0.0	-0.0	-0.0	-0.0	-0.0	93731.4296875	-21722.763671875	-9.312987327575684
0.0045000000000000005	-0.0	-0.0	-0.0	3.8725545406341553	19.485132217407227	-226.03515625	0.6916765570640564	-14.872572898864746	-273.24920654296875	-0.0	-0.0	-0.0	-0.0	-0.0	-0.0	93731.609375	-21706.93359375	-38.9720344543457
0.005	-0.0	-0.0	-0.0	3.748569965362549	19.930593490600582	-226.6695098876953	0.4963714480400085	-14.891647338867188	-273.3150939941406	-0.0	-0.0	-0.0	-0.0	-0.0	-0.0	93481.15625	-21403.990234375	-68.75872039794922
0.0055	-0.0	-0.0	-0.0	4.4578351974487305	20.10593605041504	-225.90240478515625	0.5845934152603149	-14.661399841308594	-272.9662170410156	-0.0	-0.0	-0.0	-0.0	-0.0	-0.0	93231.28125	-21630.8984375	-128.15451049804688
0.006	-0.0	-0.0	-0.0	4.173881530761719	19.982255935668945	-227.8724670410156	0.1774215698242187	-14.944083213806152	-273.52471923828125	-0.0	-0.0	-0.0	-0.0	-0.0	-0.0	93180.8203125	-21351.255859375	-146.03872680664062
0.006500000000000001	-0.0	-0.0	-0.0	3.943246126174927	20.392894744873047	-228.71820068359372	0.1419954299926757	-14.537724494934082	-271.9891357421875	-0.0	-0.0	-0.0	-0.0	-0.0	-0.0	93315.71875	-21318.7890625	-252.7639617919922
0.007	-0.0	-0.0	-0.0	4.121589660644531	20.286272048950195	-229.99102783203125	-0.2661323547363281	-14.414013862609863	-271.0128479003906	-0.0	-0.0	-0.0	-0.0	-0.0	-0.0	92925.3984375	-21225.3359375	-211.49871826171875
0.0075	-0.0	-0.0	-0.0	3.46136736869812	20.32173156738281	-231.19158935546875	-0.3013390898704529	-14.696452140808104	-270.66180419921875	-0.0	-0.0	-0.0	-0.0	-0.0	-0.0	92663.15625	-21099.517578125	-431.2485961914063
0.008	-0.0	-0.0	-0.0	3.747109889984131	21.10613250732422	-232.18006896972656	-0.2310322523117065	-14.66235637664795	-270.1014404296875	-0.0	-0.0	-0.0	-0.0	-0.0	-0.0	92502.6328125	-21049.181640625	-573.695068359375
0.0085	-0.0	-0.0	-0.0	3.336866855621338	21.106210708618164	-234.0881805419922	-1.0121105909347534	-14.591814994812012	-268.20660400390625	-0.0	-0.0	-0.0	-0.0	-0.0	-0.0	92299.3359375	-20720.0703125	-526.2431640625
0.009000000000000001	-0.0	-0.0	-0.0	3.442912340164185	21.623443603515625	-232.8113555908203	-0.7479065656661987	-14.377408027648926	-269.4833068847656	-0.0	-0.0	-0.0	-0.0	-0.0	-0.0	91853.4375	-20624.048828125	-621.3101806640625
0.0095	-0.0	-0.0	-0.0	3.46025824546814	22.10711097717285	-232.9541931152344	-1.296006679534912	-14.642084121704102	-267.1692199707031	-0.0	-0.0	-0.0	-0.0	-0.0	-0.0	91536.5	-20481.7890625	-615.3041381835938
0.01	-0.0	-0.0	-0.0	3.265777349472046	22.05354881286621	-235.00326538085935	-0.993087649345398	-14.644207000732422	-267.314208984375	-0.0	-0.0	-0.0	-0.0	-0.0	-0.0	91192.15625	-20148.578125	-578.80078125
0.0105	-0.0	-0.0	-0.0	3.302738904953003	22.26516342163086	-236.00100708007807	-1.899990558624268	-14.664021492004396	-266.3349609375	-0.0	-0.0	-0.0	-0.0	-0.0	-0.0	90983.609375	-20187.580078125	-800.2483520507812
0.011	-0.0	-0.0	-0.0	3.374962568283081	22.802358627319336	-237.7588806152344	-1.8629264831542969	-14.447624206542969	-265.9305114746094	-0.0	-0.0	-0.0	-0.0	-0.0	-0.0	90613.8046875	-19966.0625	-751.3172607421875
0.0115	-0.0	-0.0	-0.0	3.087764978408813	22.83736991882324	-236.97303771972656	-1.9891506433486936	-14.698748588562012	-263.5423278808594	-0.0	-0.0	-0.0	-0.0	-0.0	-0.0	89978.6328125	-19962.5546875	-900.7759399414062
0.012	-0.0	-0.0	-0.0	2.9611852169036865	23.12223625183105	-238.4084014892578	-1.7535169124603271	-14.46414852142334	-263.26031494140625	-0.0	-0.0	-0.0	-0.0	-0.0	-0.0	89978.15625	-19799.92578125	-1014.734130859375
0.0125	-0.0	-0.0	-0.0	3.266467332839966	23.317874908447266	-240.23028564453125	-1.520927906036377	-14.610844612121582	-262.1462707519531	-0.0	-0.0	-0.0	-0.0	-0.0	-0.0	89601.9765625	-19737.90234375	-941.3576049804688
0.013000000000000001	-0.0	-0.0	-0.0	3.1223678588867188	23.615835189819336	-239.08807373046875	-2.112196207046509	-14.51833438873291	-262.7611389160156	-0.0	-0.0	-0.0	-0.0	-0.0	-0.0	89559.59375	-19493.521484375	-960.0778198242188
0.0135	-0.0	-0.0	-0.0	3.372975349426269	23.92913818359375	-240.76893615722656	-2.378401279449463	-14.783154487609863	-261.7315368652344	-0.0	-0.0	-0.0	-0.0	-0.0	-0.0	89256.03125	-19323.166015625	-1008.4093627929688
0.014	-0.0	-0.0	-0.0	3.373034238815308	23.869997024536133	-241.22189331054688	-2.323211908340454	-14.948054313659668	-259.8806457519531	-0.0	-0.0	-0.0	-0.0	-0.0	-0.0	88974.90625	-19037.5703125	-1084.544189453125
0.0145	-0.0	-0.0	-0.0	2.837825059890747	24.315704345703125	-244.53440856933597	-2.766712188720703	-14.771624565124512	-259.9657287597656	-0.0	-0.0	-0.0	-0.0	-0.0	-0.0	88465.96875	-18967.568359375	-1168.1942138671875
0.015	-0.0	-0.0	-0.0	2.637605905532837	25.329853057861328	-246.29969787597656	-2.727726459503174	-14.573078155517578	-257.6963806152344	-0.0	-0.0	-0.0	-0.0	-0.0	-0.0	87966.90625	-18798.806640625	-1264.5418701171875
0.0155	-0.0	-0.0	-0.0	2.709836721420288	25.58042526245117	-247.7567901611328	-3.06575083732605	-14.50725555419922	-255.9281311035156	-0.0	-0.0	-0.0	-0.0	-0.0	-0.0	87561.8125	-18450.447265625	-1292.4725341796875
0.016	-0.0	-0.0	-0.0	2.983036756515503	26.12622833251953	-248.3516387939453	-3.265824556350708	-14.61219310760498	-254.53152465820312	-0.0	-0.0	-0.0	-0.0	-0.0	-0.0	86686.828125	-18317.193359375	-1257.4327392578125
0.0165	-0.0	-0.0	-0.0	2.581040859222412	26.89470863342285	-250.51223754882807	-3.4202022552490234	-14.73339557647705	-254.3114471435547	-0.0	-0.0	-0.0	-0.0	-0.0	-0.0	86529.3828125	-18015.66015625	-1446.4981689453125
0.017	-0.0	-0.0	-0.0	2.815222978591919	27.52474403381348	-251.9737243652344	-3.508723258972168	-14.612611770629885	-251.89459228515625	-0.0	-0.0	-0.0	-0.0	-0.0	-0.0	86142.3828125	-17851.14453125	-1476.1309814453125
0.0175	-0.0	-0.0	-0.0	3.195086002349853	28.389907836914062	-253.19143676757807	-4.3704938888549805	-14.428814888000488	-250.69085693359372	-0.0	-0.0	-0.0	-0.0	-0.0	-0.0	85592.5234375	-17709.1640625	-1643.7330322265625
0.018000000000000002	-0.0	-0.0	-0.0	2.9204719066619877	28.82899284362793	-255.02378845214844	-4.104594230651856	-14.573078155517578	-249.0088653564453	-0.0	-0.0	-0.0	-0.0	-0.0	-0.0	85430.921875	-17731.73046875	-1530.3231201171875
0.0185	-0.0	-0.0	-0.0	2.7090563774108887	28.861894607543945	-254.73666381835935	-4.153266906738281	-14.629261016845703	-248.4373779296875	-0.0	-0.0	-0.0	-0.0	-0.0	-0.0	85253.5	-17158.09765625	-1670.534423828125
0.019	-0.0	-0.0	-0.0	3.2519099712371826	29.185935974121094	-254.96206665039065	-4.104426383972168	-14.292120933532717	-248.5628967285156	-0.0	-0.0	-0.0	-0.0	-0.0	-0.0	84940.890625	-17234.857421875	-1592.2933349609375
0.0195	-0.0	-0.0	-0.0	3.106128931045532	29.234771728515625	-253.48716735839844	-4.63763427734375	-14.758347511291504	-248.595947265625	-0.0	-0.0	-0.0	-0.0	-0.0	-0.0	84612.7890625	-17131.9140625	-1608.905029296875
0.02	-0.0	-0.0	-0.0	3.3816680908203125	29.680423736572266	-254.54571533203125	-4.435539245605469	-14.76559829711914	-247.7093505859375	-0.0	-0.0	-0.0	-0.0	-0.0	-0.0	84641.5625	-16882.34765625	-1708.4200439453125
0.0205	-0.0	-0.0	-0.0	3.616715431213379	29.22606086730957	-253.90185546875	-4.394436836242676	-14.29879093170166	-247.8607940673828	-0.0	-0.0	-0.0	-0.0	-0.0	-0.0	84832.34375	-16811.15625	-1692.30078125
0.021	-0.0	-0.0	-0.0	3.6095263957977295	29.7535343170166	-254.93243408203125	-4.441666603088379	-14.09645938873291	-248.34710693359372	-0.0	-0.0	-0.0	-0.0	-0.0	-0.0	84918.15625	-16846.861328125	-1732.539306640625
0.021500000000000002	-0.0	-0.0	-0.0	3.673592567443848	29.639135360717773	-254.99591064453125	-4.62300443649292	-14.583077430725098	-247.89764404296875	-0.0	-0.0	-0.0	-0.0	-0.0	-0.0	84758.4609375	-16621.6015625	-1727.5062255859375
0.022	-0.0	-0.0	-0.0	3.7980358600616455	29.34599494934082	-253.4188995361328	-4.27379322052002	-14.495043754577637	-249.1708526611328	-0.0	-0.0	-0.0	-0.0	-0.0	-0.0	84956.53125	-16594.658203125	-1835.408203125
0.0225	-0.0	-0.0	-0.0	3.45339584350586	29.533832550048828	-252.9395751953125	-4.555474281311035	-14.734177589416504	-248.79981994628903	-0.0	-0.0	-0.0	-0.0	-0.0	-0.0	85019.90625	-16593.271484375	-1826.9298095703125
0.023	-0.0	-0.0	-0.0	3.285017251968384	29.12495422363281	-251.48556518554688	-4.320257663726807	-13.974772453308104	-249.87026977539065	-0.0	-0.0	-0.0	-0.0	-0.0	-0.0	85067.875	-16610.5546875	-1688.5872802734375
0.0235	-0.0	-0.0	-0.0	3.458463430404663	29.55990600585937	-253.37667846679688	-4.346828460693359	-14.630572319030762	-250.21983337402344	-0.0	-0.0	-0.0	-0.0	-0.0	-0.0	85523.484375	-16917.517578125	-1811.13720703125
0.024	-0.0	-0.0	-0.0	3.169329643249512	28.51079750061035	-253.04409790039065	-4.466394424438477	-14.484756469726562	-250.75157165527344	-0.0	-0.0	-0.0	-0.0	-0.0	-0.0	85535.78125	-16752.25	-1727.369873046875
0.0245	-0.0	-0.0	-0.0	3.164849042892456	28.924938201904297	-251.23426818847656	-4.377529621124268	-14.67668342590332	-252.4970245361328	-0.0	-0.0	-0.0	-0.0	-0.0	-0.0	86089.765625	-16815.181640625	-1702.824462890625
0.025	-0.0	-0.0	-0.0	2.734480142593384	28.99447631835937	-252.52365112304688	-4.554844379425049	-14.911134719848633	-252.20787048339844	-0.0	-0.0	-0.0	-0.0	-0.0	-0.0	86407.3203125	-16748.83984375	-1767.435546875
0.025500000000000002	-0.0	-0.0	-0.0	2.5287861824035645	28.50283432006836	-251.74241638183597	-4.25811767578125	-14.880903244018556	-254.5914306640625	-0.0	-0.0	-0.0	-0.0	-0.0	-0.0	86475.421875	-16857.951171875	-1727.322509765625
0.026000000000000002	-0.0	-0.0	-0.0	2.3809609413146973	28.30973243713379	-248.57781982421875	-4.405244827270508	-14.89620304107666	-255.34051513671875	-0.0	-0.0	-0.0	-0.0	-0.0	-0.0	86982.171875	-16970.64453125	-1870.68603515625
0.0265	-0.0	-0.0	-0.0	2.156351089477539	27.98694610595703	-249.7989044189453	-4.5393242835998535	-14.74972152709961	-254.36036682128903	-0.0	-0.0	-0.0	-0.0	-0.0	-0.0	87028.0703125	-16785.255859375	-1757.1531982421875
0.027	-0.0	-0.0	-0.0	1.5165786743164062	27.749969482421875	-248.406005859375	-4.25811767578125	-14.897769927978516	-256.3903503417969	-0.0	-0.0	-0.0	-0.0	-0.0	-0.0	87125.9765625	-16846.927734375	-1786.6546630859375
